<svg width="24" height="24" viewBox="0 0 24 24" fill="none" xmlns="http://www.w3.org/2000/svg">
<path d="M12 22.25C6.34614 22.25 1.75 17.6539 1.75 12C1.75 6.34614 6.34614 1.75 12 1.75C17.6539 1.75 22.25 6.34614 22.25 12C22.25 17.6539 17.6539 22.25 12 22.25ZM12 2.25C6.62386 2.25 2.25 6.62386 2.25 12C2.25 17.3761 6.62386 21.75 12 21.75C17.3761 21.75 21.75 17.3761 21.75 12C21.75 6.62386 17.3761 2.25 12 2.25Z" fill="#5F9DFE" stroke="#5F9DFE"/>
<path d="M15.6072 15.4037L15.5968 15.3968L15.5861 15.3904L12.4863 13.5405C12.4863 13.5405 12.4862 13.5404 12.4861 13.5404C11.8676 13.1708 11.3899 12.3241 11.3899 11.6098V7.50977C11.3899 7.37591 11.506 7.25977 11.6399 7.25977C11.7738 7.25977 11.8899 7.37591 11.8899 7.50977V11.6098C11.8899 11.9081 12.0064 12.2175 12.144 12.4595C12.2807 12.6998 12.4868 12.9589 12.7458 13.1104L15.8437 14.9591L15.8437 14.9591L15.848 14.9617C15.9564 15.0249 16.004 15.1701 15.9317 15.3013C15.8727 15.3911 15.7849 15.4298 15.7099 15.4298C15.6834 15.4298 15.6635 15.4267 15.6485 15.4226C15.6342 15.4187 15.621 15.4129 15.6072 15.4037Z" fill="#5F9DFE" stroke="#5F9DFE"/>
</svg>
