<svg width="16" height="16" viewBox="0 0 16 16" fill="none" xmlns="http://www.w3.org/2000/svg">
<path d="M5.88941 10.6691C5.74773 10.6691 5.60606 10.6169 5.49421 10.505C5.27797 10.2888 5.27797 9.93086 5.49421 9.71462L9.71462 5.49421C9.93086 5.27797 10.2888 5.27797 10.505 5.49421C10.7213 5.71045 10.7213 6.06836 10.505 6.2846L6.2846 10.505C6.18021 10.6169 6.03108 10.6691 5.88941 10.6691Z" fill="#0451CD"/>
<path d="M10.1098 10.6691C9.96814 10.6691 9.82647 10.6169 9.71462 10.505L5.49421 6.2846C5.27797 6.06836 5.27797 5.71045 5.49421 5.49421C5.71045 5.27797 6.06836 5.27797 6.2846 5.49421L10.505 9.71462C10.7213 9.93086 10.7213 10.2888 10.505 10.505C10.3932 10.6169 10.2515 10.6691 10.1098 10.6691Z" fill="#0451CD"/>
</svg>
