<svg width="24" height="24" viewBox="0 0 24 24" fill="none" xmlns="http://www.w3.org/2000/svg">
<path d="M11.4 22.25H7.6C5.46785 22.25 4.03739 21.7728 3.1323 20.8677C2.22721 19.9626 1.75 18.5321 1.75 16.4V12.6C1.75 10.4679 2.22721 9.03739 3.1323 8.1323C4.03739 7.22721 5.46785 6.75 7.6 6.75H10.6C10.7339 6.75 10.85 6.86614 10.85 7C10.85 7.13386 10.7339 7.25 10.6 7.25H7.6C5.77505 7.25 4.38945 7.56844 3.47895 8.47895C2.56844 9.38945 2.25 10.7751 2.25 12.6V16.4C2.25 18.2249 2.56844 19.6105 3.47895 20.5211C4.38945 21.4316 5.77505 21.75 7.6 21.75H11.4C13.2249 21.75 14.6105 21.4316 15.5211 20.5211C16.4316 19.6105 16.75 18.2249 16.75 16.4V13.4C16.75 13.2661 16.8661 13.15 17 13.15C17.1339 13.15 17.25 13.2661 17.25 13.4V16.4C17.25 18.5321 16.7728 19.9626 15.8677 20.8677C14.9626 21.7728 13.5321 22.25 11.4 22.25Z" fill="#5F9DFE" stroke="#5F9DFE"/>
<path d="M10.4929 6.77585L10.5 6.77306L10.5071 6.77005C10.5872 6.73569 10.695 6.74861 10.7816 6.82907L17.1765 13.224C17.2461 13.2935 17.2677 13.4067 17.2305 13.4935L17.2275 13.5005L17.2247 13.5077C17.1943 13.5852 17.1068 13.6505 17.0001 13.6505H13.8001C12.4461 13.6505 11.6222 13.373 11.1249 12.8757C10.6276 12.3783 10.3501 11.5544 10.3501 10.2005V7.00048C10.3501 6.89382 10.4154 6.80631 10.4929 6.77585ZM11.7037 8.45692L10.8501 7.60337V8.81048V10.2005C10.8501 11.1841 10.9502 12.0001 11.4753 12.5253C12.0004 13.0504 12.8165 13.1505 13.8001 13.1505H15.1901H16.3972L15.5437 12.2969L11.7037 8.45692Z" fill="#5F9DFE" stroke="#5F9DFE"/>
<path d="M15.6001 2.75H11.6001C11.1901 2.75 10.8501 2.41 10.8501 2C10.8501 1.59 11.1901 1.25 11.6001 1.25H15.6001C16.0101 1.25 16.3501 1.59 16.3501 2C16.3501 2.41 16.0101 2.75 15.6001 2.75Z" fill="#5F9DFE"/>
<path d="M7 5.75C6.59 5.75 6.25 5.41 6.25 5C6.25 2.93 7.93 1.25 10 1.25H12.62C13.03 1.25 13.37 1.59 13.37 2C13.37 2.41 13.03 2.75 12.62 2.75H10C8.76 2.75 7.75 3.76 7.75 5C7.75 5.41 7.41 5.75 7 5.75Z" fill="#5F9DFE"/>
<path d="M19.1899 17.75C18.7799 17.75 18.4399 17.41 18.4399 17C18.4399 16.59 18.7799 16.25 19.1899 16.25C20.3299 16.25 21.2499 15.32 21.2499 14.19V8C21.2499 7.59 21.5899 7.25 21.9999 7.25C22.4099 7.25 22.7499 7.59 22.7499 8V14.19C22.7499 16.15 21.1499 17.75 19.1899 17.75Z" fill="#5F9DFE"/>
<path d="M22 8.75048H19C16.34 8.75048 15.25 7.66048 15.25 5.00048V2.00048C15.25 1.70048 15.43 1.42048 15.71 1.31048C15.99 1.19048 16.31 1.26048 16.53 1.47048L22.53 7.47048C22.74 7.68048 22.81 8.01048 22.69 8.29048C22.58 8.57048 22.3 8.75048 22 8.75048ZM16.75 3.81048V5.00048C16.75 6.83048 17.17 7.25048 19 7.25048H20.19L16.75 3.81048Z" fill="#5F9DFE"/>
</svg>
