<svg width="16" height="16" viewBox="0 0 16 16" fill="none" xmlns="http://www.w3.org/2000/svg">
<path d="M7.29339 15.0999C6.97339 15.0999 6.66006 15.0199 6.36672 14.8599C5.78006 14.5332 5.42672 13.9399 5.42672 13.2732V9.7399C5.42672 9.40657 5.20672 8.90657 5.00006 8.65324L2.50672 6.01324C2.08672 5.59324 1.76672 4.87324 1.76672 4.33324V2.7999C1.76672 1.73324 2.57339 0.899902 3.60006 0.899902H12.4001C13.4134 0.899902 14.2334 1.7199 14.2334 2.73324V4.1999C14.2334 4.8999 13.8134 5.69324 13.4201 6.08657L10.5334 8.6399C10.2534 8.87324 10.0334 9.38657 10.0334 9.7999V12.6666C10.0334 13.2599 9.66006 13.9466 9.19339 14.2266L8.27339 14.8199C7.97339 15.0066 7.63339 15.0999 7.29339 15.0999ZM3.60006 1.8999C3.13339 1.8999 2.76672 2.29324 2.76672 2.7999V4.33324C2.76672 4.5799 2.96672 5.0599 3.22006 5.31324L5.76006 7.98657C6.10006 8.40657 6.43339 9.10657 6.43339 9.73324V13.2666C6.43339 13.6999 6.73339 13.9132 6.86006 13.9799C7.14006 14.1332 7.48006 14.1332 7.74006 13.9732L8.66672 13.3799C8.85339 13.2666 9.04006 12.9066 9.04006 12.6666V9.7999C9.04006 9.08657 9.38672 8.2999 9.88672 7.8799L12.7401 5.35324C12.9667 5.12657 13.2401 4.58657 13.2401 4.19324V2.73324C13.2401 2.27324 12.8667 1.8999 12.4067 1.8999H3.60006Z" fill="#2E2F32"/>
<path d="M3.99995 7.16652C3.90661 7.16652 3.81995 7.13985 3.73328 7.09318C3.49995 6.94652 3.42661 6.63318 3.57328 6.39985L6.85995 1.13318C7.00661 0.89985 7.31328 0.826517 7.54661 0.973183C7.77995 1.11985 7.85328 1.42652 7.70661 1.65985L4.41995 6.92652C4.32661 7.07985 4.16661 7.16652 3.99995 7.16652Z" fill="#2E2F32"/>
</svg>
