<svg width="16" height="16" viewBox="0 0 16 16" fill="none" xmlns="http://www.w3.org/2000/svg">
<path d="M8.1064 7.74683C8.0864 7.74683 8.07307 7.74683 8.05307 7.74683C8.01973 7.74016 7.97307 7.74016 7.93307 7.74683C5.99973 7.68683 4.53973 6.16683 4.53973 4.2935C4.53973 2.38683 6.09307 0.833496 7.99973 0.833496C9.9064 0.833496 11.4597 2.38683 11.4597 4.2935C11.4531 6.16683 9.9864 7.68683 8.1264 7.74683C8.11973 7.74683 8.11307 7.74683 8.1064 7.74683ZM7.99973 1.8335C6.6464 1.8335 5.53973 2.94016 5.53973 4.2935C5.53973 5.62683 6.57973 6.70016 7.9064 6.74683C7.93973 6.74016 8.03307 6.74016 8.11973 6.74683C9.4264 6.68683 10.4531 5.6135 10.4597 4.2935C10.4597 2.94016 9.35307 1.8335 7.99973 1.8335Z" fill="#2E2F32"/>
<path d="M8.11307 15.0332C6.80641 15.0332 5.49307 14.6998 4.49974 14.0332C3.57307 13.4198 3.06641 12.5798 3.06641 11.6665C3.06641 10.7532 3.57307 9.9065 4.49974 9.2865C6.49974 7.95984 9.73974 7.95984 11.7264 9.2865C12.6464 9.89984 13.1597 10.7398 13.1597 11.6532C13.1597 12.5665 12.6531 13.4132 11.7264 14.0332C10.7264 14.6998 9.41974 15.0332 8.11307 15.0332ZM5.05307 10.1265C4.41307 10.5532 4.06641 11.0998 4.06641 11.6732C4.06641 12.2398 4.41974 12.7865 5.05307 13.2065C6.71307 14.3198 9.51307 14.3198 11.1731 13.2065C11.8131 12.7798 12.1597 12.2332 12.1597 11.6598C12.1597 11.0932 11.8064 10.5465 11.1731 10.1265C9.51307 9.01984 6.71307 9.01984 5.05307 10.1265Z" fill="#2E2F32"/>
</svg>
