<svg viewBox="0 0 32 32" xmlns="http://www.w3.org/2000/svg">
<path d="M27.7734 10.6799L19.04 3.69319C17.3334 2.3332 14.6667 2.31986 12.9734 3.67986L4.24003 10.6799C2.9867 11.6799 2.2267 13.6799 2.49337 15.2532L4.17337 25.3065C4.56003 27.5599 6.65337 29.3332 8.93336 29.3332H23.0667C25.32 29.3332 27.4534 27.5199 27.84 25.2932L29.52 15.2399C29.76 13.6799 29 11.6799 27.7734 10.6799ZM17 23.9999C17 24.5465 16.5467 24.9999 16 24.9999C15.4534 24.9999 15 24.5465 15 23.9999V19.9999C15 19.4532 15.4534 18.9999 16 18.9999C16.5467 18.9999 17 19.4532 17 19.9999V23.9999Z"/>
</svg>
