<svg width="24" height="24" viewBox="0 0 24 24" fill="none" xmlns="http://www.w3.org/2000/svg">
<path d="M18 10.25C17.8661 10.25 17.75 10.1339 17.75 10V8C17.75 6.40247 17.5304 4.93455 16.6437 3.8732C15.74 2.79134 14.2488 2.25 12 2.25C9.75122 2.25 8.26003 2.79134 7.35627 3.8732C6.46964 4.93455 6.25 6.40247 6.25 8V10C6.25 10.1339 6.13386 10.25 6 10.25C5.86614 10.25 5.75 10.1339 5.75 10V8C5.75 6.57122 5.92728 5.01738 6.76532 3.82501C7.57785 2.66893 9.08865 1.75 12 1.75C14.9113 1.75 16.4221 2.66893 17.2347 3.82501C18.0727 5.01738 18.25 6.57122 18.25 8V10C18.25 10.1339 18.1339 10.25 18 10.25Z" fill="#5F9DFE" stroke="#5F9DFE"/>
<path d="M17 22.25H7C4.81222 22.25 3.55896 21.9094 2.8248 21.1752C2.09065 20.441 1.75 19.1878 1.75 17V15C1.75 12.8122 2.09065 11.559 2.8248 10.8248C3.55896 10.0906 4.81222 9.75 7 9.75H17C19.1878 9.75 20.441 10.0906 21.1752 10.8248C21.9094 11.559 22.25 12.8122 22.25 15V17C22.25 19.1878 21.9094 20.441 21.1752 21.1752C20.441 21.9094 19.1878 22.25 17 22.25ZM7 10.25C6.09618 10.25 5.34091 10.2922 4.72235 10.4228C4.09822 10.5546 3.57727 10.7836 3.17859 11.1831C2.77996 11.5825 2.55213 12.1037 2.42129 12.7271C2.2916 13.345 2.25 14.0989 2.25 15V17C2.25 17.9011 2.2916 18.655 2.42129 19.2729C2.55213 19.8963 2.77996 20.4175 3.17859 20.8169C3.57727 21.2164 4.09822 21.4454 4.72235 21.5772C5.34091 21.7078 6.09618 21.75 7 21.75H17C17.9038 21.75 18.6591 21.7078 19.2776 21.5772C19.9018 21.4454 20.4227 21.2164 20.8214 20.8169C21.22 20.4175 21.4479 19.8963 21.5787 19.2729C21.7084 18.655 21.75 17.9011 21.75 17V15C21.75 14.0989 21.7084 13.345 21.5787 12.7271C21.4479 12.1037 21.22 11.5825 20.8214 11.1831C20.4227 10.7836 19.9018 10.5546 19.2776 10.4228C18.6591 10.2922 17.9038 10.25 17 10.25H7Z" fill="#5F9DFE" stroke="#5F9DFE"/>
<path d="M8 16.9999C7.87 16.9999 7.74 16.9699 7.62 16.9199C7.49 16.8699 7.39001 16.7999 7.29001 16.7099C7.11001 16.5199 7 16.2699 7 15.9999C7 15.8699 7.02999 15.7399 7.07999 15.6199C7.12999 15.4899 7.20001 15.3899 7.29001 15.2899C7.39001 15.1999 7.49 15.1299 7.62 15.0799C7.98 14.9199 8.42999 15.0099 8.70999 15.2899C8.79999 15.3899 8.87001 15.4999 8.92001 15.6199C8.97001 15.7399 9 15.8699 9 15.9999C9 16.2599 8.88999 16.5199 8.70999 16.7099C8.51999 16.8899 8.26 16.9999 8 16.9999Z" fill="#5F9DFE"/>
<path d="M12 16.9999C11.74 16.9999 11.48 16.8899 11.29 16.7099C11.11 16.5199 11 16.2699 11 15.9999C11 15.8699 11.02 15.7399 11.08 15.6199C11.13 15.4999 11.2 15.3899 11.29 15.2899C11.52 15.0599 11.87 14.9499 12.19 15.0199C12.26 15.0299 12.32 15.0499 12.38 15.0799C12.44 15.0999 12.5 15.1299 12.56 15.1699C12.61 15.1999 12.66 15.2499 12.71 15.2899C12.8 15.3899 12.87 15.4999 12.92 15.6199C12.97 15.7399 13 15.8699 13 15.9999C13 16.2699 12.89 16.5199 12.71 16.7099C12.66 16.7499 12.61 16.7899 12.56 16.8299C12.5 16.8699 12.44 16.8999 12.38 16.9199C12.32 16.9499 12.26 16.9699 12.19 16.9799C12.13 16.9899 12.06 16.9999 12 16.9999Z" fill="#5F9DFE"/>
<path d="M16 16.9999C15.73 16.9999 15.48 16.8899 15.29 16.7099C15.2 16.6099 15.13 16.4999 15.08 16.3799C15.03 16.2599 15 16.1299 15 15.9999C15 15.7399 15.11 15.4799 15.29 15.2899C15.34 15.2499 15.39 15.2099 15.44 15.1699C15.5 15.1299 15.56 15.0999 15.62 15.0799C15.68 15.0499 15.74 15.0299 15.8 15.0199C16.13 14.9499 16.47 15.0599 16.71 15.2899C16.89 15.4799 17 15.7299 17 15.9999C17 16.1299 16.97 16.2599 16.92 16.3799C16.87 16.5099 16.8 16.6099 16.71 16.7099C16.52 16.8899 16.26 16.9999 16 16.9999Z" fill="#5F9DFE"/>
</svg>
