<svg width="24" height="24" viewBox="0 0 24 24" fill="none" xmlns="http://www.w3.org/2000/svg">
<path d="M8.50366 7.35371L8.50367 7.35372C8.70947 6.48935 8.94993 5.78341 9.22957 5.20262C9.61362 4.4023 10.1111 3.77751 10.7719 3.35754C11.4333 2.93715 12.2151 2.74953 13.1201 2.74953C13.8094 2.74953 14.5894 2.85684 15.4455 3.06303C15.4461 3.06316 15.4466 3.0633 15.4472 3.06344L17.1131 3.45246C17.1131 3.45248 17.1132 3.4525 17.1133 3.45252C19.0933 3.91183 20.4384 4.61363 21.1453 5.7565C21.8521 6.89917 21.8758 8.4155 21.417 10.3831L21.4169 10.3837L20.4371 14.5627C20.4371 14.5629 20.437 14.563 20.437 14.5632C20.0491 16.2317 19.4905 17.4725 18.5984 18.2491C17.6857 19.0437 16.5116 19.2796 15.0736 19.1374C15.0727 19.1373 15.0717 19.1372 15.0707 19.1371L15.1201 18.6395C14.6601 18.5995 14.1501 18.5195 13.6101 18.3895L8.50366 7.35371ZM8.50366 7.35371L8.50321 7.35565L7.52338 11.5449C7.52336 11.545 7.52334 11.5451 7.52332 11.5452C7.0703 13.4694 7.06666 14.9957 7.79393 16.1681C8.52078 17.3399 9.89091 18.018 11.8143 18.4759L13.493 18.8756C13.4931 18.8757 13.4931 18.8757 13.4932 18.8757L8.50366 7.35371ZM15.0415 19.6422L15.0415 19.642L15.0284 19.641C14.541 19.6035 13.9785 19.5088 13.3895 19.364L13.3859 19.3631L11.7059 18.9631L11.7051 18.9629C9.45626 18.4312 8.07902 17.5956 7.36133 16.4374C6.64378 15.2795 6.5101 13.6773 7.03684 11.4338L7.03693 11.4334L8.01693 7.2434L8.01718 7.24233C8.23141 6.31723 8.48017 5.58737 8.77729 4.99313L8.77732 4.99315L8.78004 4.98754C9.57228 3.35239 10.6975 2.64263 11.8808 2.38016C13.0972 2.11038 14.4137 2.30551 15.5657 2.57626L15.5664 2.57643L17.2357 2.96626C17.2358 2.96628 17.2358 2.9663 17.2359 2.96632C19.5151 3.50206 20.845 4.32394 21.5751 5.49301C22.296 6.66297 22.4486 8.2178 21.9133 10.4951L21.9133 10.4954L20.9333 14.6752C20.5152 16.4546 19.8853 17.6988 19.0559 18.4967C18.2396 19.2822 17.1841 19.6795 15.8101 19.6795C15.5632 19.6795 15.3109 19.67 15.0415 19.6422Z" fill="#5F9DFE" stroke="#5F9DFE"/>
<path d="M3.54584 17.306L3.5457 17.3055L2.26589 13.3561C2.26585 13.356 2.26582 13.3559 2.26579 13.3558C1.57344 11.2104 1.57532 9.64564 2.17543 8.46942C2.77543 7.29343 4.03884 6.37765 6.17403 5.68538C6.1741 5.68536 6.17418 5.68534 6.17425 5.68531L7.75037 5.17657C8.26847 5.01719 8.63019 4.91638 8.94453 4.8625L8.95297 4.86105L8.96135 4.85931C9.06034 4.83884 9.14385 4.87366 9.19796 4.94688C9.25795 5.02803 9.26974 5.13187 9.22789 5.22614C8.94809 5.79818 8.70813 6.5044 8.51278 7.36758L7.53336 11.5551C7.53331 11.5553 7.53326 11.5555 7.53321 11.5557C7.08028 13.4797 7.07669 15.0059 7.80391 16.1782C8.53076 17.35 9.90089 18.0281 11.8242 18.4861L13.503 18.8858C13.5033 18.8859 13.5036 18.8859 13.5038 18.886C14.0667 19.0214 14.6003 19.1054 15.0846 19.1476C15.1918 19.1581 15.2818 19.2282 15.3176 19.3417C15.3417 19.4463 15.3013 19.5485 15.2166 19.6078C14.6088 20.0219 13.8269 20.3834 12.806 20.714L12.8037 20.7147L11.2272 21.2336C10.1102 21.583 9.16347 21.7497 8.33005 21.7497C7.15606 21.7497 6.2284 21.4025 5.46806 20.705C4.69388 19.9948 4.05685 18.8877 3.54584 17.306ZM8.25607 6.37269L8.55541 5.44141L7.62526 5.74425L6.33674 6.16377C6.3365 6.16385 6.33625 6.16393 6.336 6.16401C4.51759 6.74987 3.24803 7.51163 2.6395 8.70653C2.03143 9.90054 2.15854 11.38 2.74401 13.2026L2.7444 13.2038L4.0244 17.1538L4.02452 17.1542C4.6154 18.9727 5.37969 20.2439 6.57352 20.8548C7.76753 21.4658 9.24467 21.3415 11.0634 20.7556L11.0664 20.7546L12.6464 20.2346L12.6482 20.234C12.6846 20.2219 12.7175 20.2099 12.744 20.2003L12.7459 20.1996C12.7741 20.1893 12.7955 20.1816 12.8182 20.174L14.4886 19.6172L12.7748 19.213L11.7151 18.9631C11.715 18.9631 11.7149 18.9631 11.7148 18.963C9.46613 18.4313 8.08897 17.5957 7.37131 16.4376C6.65376 15.2796 6.52008 13.6775 7.04682 11.434L7.04691 11.4336L8.02691 7.24356L8.02696 7.24357L8.0285 7.23653C8.09611 6.92746 8.17221 6.63357 8.25607 6.37269Z" fill="#5F9DFE" stroke="#5F9DFE"/>
<path d="M17.4901 10.5098C17.4301 10.5098 17.3701 10.4998 17.3001 10.4898L12.4501 9.25978C12.0501 9.15978 11.8101 8.74978 11.9101 8.34978C12.0101 7.94978 12.4201 7.70978 12.8201 7.80978L17.6701 9.03978C18.0701 9.13978 18.3101 9.54978 18.2101 9.94978C18.1301 10.2798 17.8201 10.5098 17.4901 10.5098Z" fill="#5F9DFE"/>
<path d="M14.5599 13.8899C14.4999 13.8899 14.4399 13.8799 14.3699 13.8699L11.4599 13.1299C11.0599 13.0299 10.8199 12.6199 10.9199 12.2199C11.0199 11.8199 11.4299 11.5799 11.8299 11.6799L14.7399 12.4199C15.1399 12.5199 15.3799 12.9299 15.2799 13.3299C15.1999 13.6699 14.8999 13.8899 14.5599 13.8899Z" fill="#5F9DFE"/>
</svg>
