<svg viewBox="0 0 32 32" xmlns="http://www.w3.org/2000/svg">
<path d="M16.9036 26.6093C17.2699 26.6945 17.3034 27.1743 16.9466 27.2932L14.84 27.9866C9.54663 29.6932 6.75997 28.2666 5.03997 22.9732L3.3333 17.7066C1.62663 12.4132 3.03997 9.61323 8.3333 7.90656L9.37063 7.56303C9.77349 7.42961 10.1612 7.832 10.0388 8.23834C9.92673 8.6103 9.82162 9.00638 9.71997 9.42656L8.4133 15.0132C6.94663 21.2932 9.0933 24.7599 15.3733 26.2532L16.9036 26.6093Z"/>
<path d="M22.8934 4.28017L20.6667 3.76017C16.2134 2.70684 13.5601 3.57351 12.0001 6.80017C11.6001 7.61351 11.2801 8.60017 11.0134 9.73351L9.70674 15.3202C8.40008 20.8935 10.1201 23.6402 15.6801 24.9602L17.9201 25.4935C18.6934 25.6802 19.4134 25.8002 20.0801 25.8535C24.2401 26.2535 26.4534 24.3068 27.5734 19.4935L28.8801 13.9202C30.1867 8.34684 28.4801 5.58684 22.8934 4.28017ZM20.3867 17.7735C20.2667 18.2268 19.8667 18.5202 19.4134 18.5202C19.3334 18.5202 19.2534 18.5068 19.1601 18.4935L15.2801 17.5068C14.7467 17.3735 14.4267 16.8268 14.5601 16.2935C14.6934 15.7602 15.2401 15.4402 15.7734 15.5735L19.6534 16.5602C20.2001 16.6935 20.5201 17.2402 20.3867 17.7735ZM24.2934 13.2668C24.1734 13.7202 23.7734 14.0135 23.3201 14.0135C23.2401 14.0135 23.1601 14.0002 23.0667 13.9868L16.6001 12.3468C16.0667 12.2135 15.7467 11.6668 15.8801 11.1335C16.0134 10.6002 16.5601 10.2802 17.0934 10.4135L23.5601 12.0535C24.1067 12.1735 24.4267 12.7202 24.2934 13.2668Z"/>
</svg>
