<svg width="28" height="28" viewBox="0 0 28 28" fill="none" xmlns="http://www.w3.org/2000/svg">
<path d="M14 12.2732C13.5217 12.2732 13.125 11.8765 13.125 11.3982V7.51318C13.125 7.03485 13.5217 6.63818 14 6.63818C14.4783 6.63818 14.875 7.03485 14.875 7.51318V11.3982C14.875 11.8882 14.4783 12.2732 14 12.2732Z" fill="#2E2F32"/>
<path d="M14.0235 23.7418C11.0135 23.7418 8.01517 23.2634 5.15684 22.3068C4.09517 21.9568 3.29017 21.1984 2.94017 20.2418C2.59017 19.2851 2.70684 18.1884 3.2785 17.2318L4.76017 14.7584C5.08684 14.2101 5.3785 13.1834 5.3785 12.5418V10.0918C5.3785 5.32011 9.25184 1.44678 14.0235 1.44678C18.7952 1.44678 22.6685 5.32011 22.6685 10.0918V12.5418C22.6685 13.1718 22.9602 14.2101 23.2868 14.7584L24.7685 17.2318C25.3168 18.1418 25.4102 19.2268 25.0485 20.2184C24.6868 21.2101 23.8935 21.9684 22.8902 22.3068C20.0318 23.2751 17.0335 23.7418 14.0235 23.7418ZM14.0235 3.20844C10.2202 3.20844 7.1285 6.30011 7.1285 10.1034V12.5534C7.1285 13.4984 6.75517 14.8634 6.26517 15.6684L4.7835 18.1534C4.48017 18.6551 4.41017 19.1918 4.58517 19.6584C4.76017 20.1251 5.15684 20.4751 5.71684 20.6618C11.0835 22.4468 16.9868 22.4468 22.3535 20.6618C22.8552 20.4984 23.2402 20.1251 23.4152 19.6351C23.6018 19.1451 23.5435 18.6084 23.2752 18.1534L21.7935 15.6801C21.3035 14.8751 20.9302 13.5101 20.9302 12.5651V10.1151C20.9185 6.30011 17.8268 3.20844 14.0235 3.20844Z" fill="#2E2F32"/>
<path d="M14.0002 26.7165C12.7519 26.7165 11.5269 26.2032 10.6402 25.3165C9.75357 24.4299 9.24023 23.2049 9.24023 21.9565H10.9902C10.9902 22.7499 11.3169 23.5199 11.8769 24.0799C12.4369 24.6399 13.2069 24.9665 14.0002 24.9665C15.6569 24.9665 17.0102 23.6132 17.0102 21.9565H18.7602C18.7602 24.5815 16.6252 26.7165 14.0002 26.7165Z" fill="#2E2F32"/>
</svg>
