<svg width="68" height="68" viewBox="0 0 68 68" xmlns="http://www.w3.org/2000/svg">
<path d="M65.8664 29.7999L61.3331 24.5332C60.4664 23.5332 59.7664 21.6665 59.7664 20.3332V14.6665C59.7664 11.1332 56.8664 8.2332 53.3331 8.2332H47.6664C46.3664 8.2332 44.4664 7.5332 43.4664 6.66654L38.1998 2.1332C35.8998 0.166537 32.1331 0.166537 29.7998 2.1332L24.5664 6.69987C23.5664 7.5332 21.6664 8.2332 20.3664 8.2332H14.5998C11.0664 8.2332 8.16644 11.1332 8.16644 14.6665V20.3665C8.16644 21.6665 7.46644 23.5332 6.63311 24.5332L2.13311 29.8332C0.199772 32.1332 0.199772 35.8665 2.13311 38.1665L6.63311 43.4665C7.46644 44.4665 8.16644 46.3332 8.16644 47.6332V53.3332C8.16644 56.8665 11.0664 59.7665 14.5998 59.7665H20.3664C21.6664 59.7665 23.5664 60.4665 24.5664 61.3332L29.8331 65.8665C32.1331 67.8332 35.8998 67.8332 38.2331 65.8665L43.4998 61.3332C44.4998 60.4665 46.3664 59.7665 47.6998 59.7665H53.3664C56.8998 59.7665 59.7998 56.8665 59.7998 53.3332V47.6665C59.7998 46.3665 60.4998 44.4665 61.3664 43.4665L65.8998 38.1999C67.8331 35.8999 67.8331 32.0999 65.8664 29.7999Z" />
</svg>
