<svg width="20" height="20" viewBox="0 0 20 20" fill="none" xmlns="http://www.w3.org/2000/svg">
<path d="M9.58332 17.6253C5.15113 17.6253 1.54166 14.0159 1.54166 9.58366C1.54166 5.15147 5.15113 1.54199 9.58332 1.54199C14.0155 1.54199 17.625 5.15147 17.625 9.58366C17.625 14.0159 14.0155 17.6253 9.58332 17.6253ZM9.58332 1.79199C5.28181 1.79199 1.79166 5.29122 1.79166 9.58366C1.79166 13.8761 5.28181 17.3753 9.58332 17.3753C13.8848 17.3753 17.375 13.8761 17.375 9.58366C17.375 5.29122 13.8848 1.79199 9.58332 1.79199Z" fill="#2471EB" stroke="#2471EB"/>
<path d="M18.3333 18.4585C18.3157 18.4585 18.3001 18.4553 18.2868 18.4499C18.274 18.4448 18.2599 18.4363 18.2452 18.4216L16.5786 16.755C16.557 16.7334 16.5438 16.7027 16.5438 16.6669C16.5438 16.631 16.557 16.6003 16.5786 16.5787C16.6001 16.5572 16.6308 16.5439 16.6667 16.5439C16.7025 16.5439 16.7333 16.5572 16.7548 16.5787L18.4215 18.2454C18.443 18.2669 18.4563 18.2977 18.4563 18.3335C18.4563 18.3694 18.443 18.4001 18.4215 18.4216C18.4068 18.4363 18.3927 18.4448 18.3799 18.4499C18.3666 18.4553 18.351 18.4585 18.3333 18.4585Z" fill="#2471EB" stroke="#2471EB"/>
</svg>
