<svg width="20" height="20" viewBox="0 0 20 20" fill="none" xmlns="http://www.w3.org/2000/svg">
<path d="M17.5579 4.35835C16.2162 4.22502 14.8746 4.12502 13.5246 4.05002V4.04169L13.3412 2.95835C13.2162 2.19169 13.0329 1.04169 11.0829 1.04169H8.89956C6.9579 1.04169 6.77456 2.14169 6.64123 2.95002L6.46623 4.01669C5.69123 4.06669 4.91623 4.11669 4.14123 4.19169L2.44123 4.35835C2.09123 4.39169 1.84123 4.70002 1.87456 5.04169C1.90789 5.38335 2.20789 5.63335 2.5579 5.60002L4.2579 5.43335C8.62456 5.00002 13.0246 5.16669 17.4412 5.60835C17.4662 5.60835 17.4829 5.60835 17.5079 5.60835C17.8246 5.60835 18.0996 5.36669 18.1329 5.04169C18.1579 4.70002 17.9079 4.39169 17.5579 4.35835Z" fill="#DADCE5"/>
<path d="M16.025 6.78331C15.825 6.57498 15.55 6.45831 15.2666 6.45831H4.73329C4.44995 6.45831 4.16662 6.57498 3.97495 6.78331C3.78329 6.99165 3.67495 7.27498 3.69162 7.56665L4.20829 16.1166C4.29995 17.3833 4.41662 18.9666 7.32495 18.9666H12.675C15.5833 18.9666 15.7 17.3916 15.7916 16.1166L16.3083 7.57498C16.325 7.27498 16.2166 6.99165 16.025 6.78331ZM11.3833 14.7916H8.60829C8.26662 14.7916 7.98329 14.5083 7.98329 14.1666C7.98329 13.825 8.26662 13.5416 8.60829 13.5416H11.3833C11.725 13.5416 12.0083 13.825 12.0083 14.1666C12.0083 14.5083 11.725 14.7916 11.3833 14.7916ZM12.0833 11.4583H7.91662C7.57495 11.4583 7.29162 11.175 7.29162 10.8333C7.29162 10.4916 7.57495 10.2083 7.91662 10.2083H12.0833C12.425 10.2083 12.7083 10.4916 12.7083 10.8333C12.7083 11.175 12.425 11.4583 12.0833 11.4583Z" fill="#DADCE5"/>
</svg>
