<svg width="24" height="24" viewBox="0 0 24 24" fill="none" xmlns="http://www.w3.org/2000/svg">
<path d="M17.1799 18.25C16.3741 18.25 15.5649 18.0944 14.9662 17.6394C14.3934 17.2041 13.9299 16.4304 13.9299 15V9C13.9299 7.56958 14.3934 6.79586 14.9662 6.36059C15.5649 5.90563 16.3741 5.75 17.1799 5.75C17.9858 5.75 18.795 5.90563 19.3937 6.36059C19.9664 6.79586 20.4299 7.56958 20.4299 9V15C20.4299 16.4304 19.9664 17.2041 19.3937 17.6394C18.795 18.0944 17.9858 18.25 17.1799 18.25ZM17.1799 6.25C16.324 6.25 15.595 6.41286 15.0939 6.91395C14.5928 7.41503 14.4299 8.1441 14.4299 9V15C14.4299 15.8559 14.5928 16.585 15.0939 17.0861C15.595 17.5871 16.324 17.75 17.1799 17.75C18.0358 17.75 18.7649 17.5871 19.266 17.0861C19.7671 16.585 19.9299 15.8559 19.9299 15V9C19.9299 8.1441 19.7671 7.41503 19.266 6.91395C18.7649 6.41286 18.0358 6.25 17.1799 6.25Z" fill="#5F9DFE" stroke="#5F9DFE"/>
<path d="M6.82007 18.25C6.01422 18.25 5.20503 18.0944 4.60634 17.6394C4.03357 17.2041 3.57007 16.4304 3.57007 15V9C3.57007 7.56958 4.03357 6.79586 4.60634 6.36059C5.20503 5.90563 6.01422 5.75 6.82007 5.75C7.62592 5.75 8.43511 5.90563 9.03379 6.36059C9.60656 6.79586 10.0701 7.56958 10.0701 9V15C10.0701 16.4304 9.60656 17.2041 9.03379 17.6394C8.43511 18.0944 7.62592 18.25 6.82007 18.25ZM6.82007 6.25C5.96417 6.25 5.2351 6.41286 4.73402 6.91395C4.23293 7.41503 4.07007 8.1441 4.07007 9V15C4.07007 15.8559 4.23293 16.585 4.73402 17.0861C5.2351 17.5871 5.96417 17.75 6.82007 17.75C7.67597 17.75 8.40504 17.5871 8.90612 17.0861C9.4072 16.585 9.57007 15.8559 9.57007 15V9C9.57007 8.1441 9.4072 7.41503 8.90612 6.91395C8.40504 6.41286 7.67597 6.25 6.82007 6.25Z" fill="#5F9DFE" stroke="#5F9DFE"/>
<path d="M14.1801 12.75H9.82007C9.41007 12.75 9.07007 12.41 9.07007 12C9.07007 11.59 9.41007 11.25 9.82007 11.25H14.1801C14.5901 11.25 14.9301 11.59 14.9301 12C14.9301 12.41 14.6001 12.75 14.1801 12.75Z" fill="#5F9DFE"/>
<path d="M22.5 15.25C22.09 15.25 21.75 14.91 21.75 14.5V9.5C21.75 9.09 22.09 8.75 22.5 8.75C22.91 8.75 23.25 9.09 23.25 9.5V14.5C23.25 14.91 22.91 15.25 22.5 15.25Z" fill="#5F9DFE"/>
<path d="M1.5 15.25C1.09 15.25 0.75 14.91 0.75 14.5V9.5C0.75 9.09 1.09 8.75 1.5 8.75C1.91 8.75 2.25 9.09 2.25 9.5V14.5C2.25 14.91 1.91 15.25 1.5 15.25Z" fill="#5F9DFE"/>
</svg>
