<svg viewBox="0 0 16 16" xmlns="http://www.w3.org/2000/svg">
<path d="M11.4533 12.5C10.3133 12.5 8.95331 12.0667 8.95331 10V6C8.95331 3.93333 10.3133 3.5 11.4533 3.5C12.5933 3.5 13.9533 3.93333 13.9533 6V10C13.9533 12.0667 12.5933 12.5 11.4533 12.5ZM11.4533 4.5C10.3733 4.5 9.95331 4.92 9.95331 6V10C9.95331 11.08 10.3733 11.5 11.4533 11.5C12.5333 11.5 12.9533 11.08 12.9533 10V6C12.9533 4.92 12.5333 4.5 11.4533 4.5Z"/>
<path d="M4.54669 12.5C3.40669 12.5 2.04669 12.0667 2.04669 10V6C2.04669 3.93333 3.40669 3.5 4.54669 3.5C5.68669 3.5 7.04669 3.93333 7.04669 6V10C7.04669 12.0667 5.68669 12.5 4.54669 12.5ZM4.54669 4.5C3.46669 4.5 3.04669 4.92 3.04669 6V10C3.04669 11.08 3.46669 11.5 4.54669 11.5C5.62669 11.5 6.04669 11.08 6.04669 10V6C6.04669 4.92 5.62669 4.5 4.54669 4.5Z"/>
<path d="M9.45336 8.5H6.54669C6.27336 8.5 6.04669 8.27333 6.04669 8C6.04669 7.72667 6.27336 7.5 6.54669 7.5H9.45336C9.72669 7.5 9.95336 7.72667 9.95336 8C9.95336 8.27333 9.73336 8.5 9.45336 8.5Z" />
<path d="M15 10.1668C14.7267 10.1668 14.5 9.94016 14.5 9.66683V6.3335C14.5 6.06016 14.7267 5.8335 15 5.8335C15.2733 5.8335 15.5 6.06016 15.5 6.3335V9.66683C15.5 9.94016 15.2733 10.1668 15 10.1668Z" />
<path d="M1 10.1668C0.726667 10.1668 0.5 9.94016 0.5 9.66683V6.3335C0.5 6.06016 0.726667 5.8335 1 5.8335C1.27333 5.8335 1.5 6.06016 1.5 6.3335V9.66683C1.5 9.94016 1.27333 10.1668 1 10.1668Z"/>
</svg>
